<?xml version="1.0" encoding="utf-8" ?><svg xmlns="http://www.w3.org/2000/svg" xmlns:xlink="http://www.w3.org/1999/xlink" width="1024" height="1024" viewBox="0 0 1024 1024"><path fill="#121277" d="M226.759 431.686C232.196 430.929 253.083 431.318 259.913 431.417C270.816 431.573 289.348 430.672 299.487 431.667C297.213 439.684 292.924 447.312 287.824 453.863C262.853 485.94 229.28 470.253 218.953 479.975C217.702 481.153 216.953 482.518 216.922 484.27C216.911 484.953 216.905 485.049 217.212 485.628C218.263 487.611 220.7 488.227 222.752 488.577C235.535 490.758 249.247 487.303 262.019 490.515C268.774 492.214 275.033 495.993 280.021 500.811C288.858 509.33 293.898 521.044 294.008 533.318C294.194 554.874 280.331 575.277 261.199 584.59C246.407 591.791 232.351 590.534 216.445 590.555L178.25 590.578C153.52 590.459 128.789 590.594 104.061 590.983C109.649 574.588 122.281 559.126 138.302 552.143C152.296 546.044 166.961 546.856 181.851 546.913L221.333 547.058C228.431 547.109 238.65 547.839 245.403 546.26C249.386 543.164 257.318 533.451 247.038 532.634C235.41 531.711 223.228 533.83 211.573 531.298C204.187 529.693 197.625 526.386 190.866 523.198C192.317 521.869 193.742 520.511 195.138 519.125C208.471 505.843 217.246 487.003 212.133 468.066C209.622 458.766 204.251 452.269 197.544 445.664C204.33 438.302 216.838 432.782 226.759 431.686Z"/><path fill="#121277" d="M109.914 432.645C116.238 432.228 126.067 432.433 132.604 432.451C142.272 432.478 155.092 431.781 164.253 433.603C177.652 436.13 189.471 443.94 197.052 455.274C218.387 487.422 192.655 525.845 157.475 529.794C143.131 531.404 132.623 529.136 119.697 537.789C101.815 549.759 99.0304 571.65 94.9963 591.061L83.1619 591C72.6448 590.885 62.1264 591.044 51.6176 591.475C52.1551 586.367 55.6995 574.696 56.9893 569.163C58.7623 561.556 60.8607 551.264 63.3635 544.082C74.2753 513.719 101.736 492.384 133.854 489.315C138.719 488.851 143.357 488.844 148.294 488.763C152.22 488.698 159.15 488.937 160.312 483.966C161.546 478.686 157.528 476.862 152.927 476.721C135.272 476.178 117.406 477.487 99.765 476.478C99.5491 476.449 99.3333 476.42 99.1175 476.391C99.5044 472.509 108.865 434.475 109.914 432.645Z"/><path fill="#121277" d="M560.547 484.132C568.188 483.806 574.514 484.938 580.901 489.495C596.979 500.966 597.979 529.18 586.547 543.99C582.041 549.798 575.391 553.553 568.09 554.412C557.298 555.778 552.084 552.641 544.027 546.412C543.855 556.389 543.948 566.627 543.924 576.625C543.95 581.073 543.914 585.522 543.818 589.969C538.638 590.373 530.479 590.256 525.049 590.343C524.011 581.945 524.485 556.919 524.573 547.327C524.76 527.023 523.936 505.18 524.385 485.085C530.713 484.915 537.421 484.98 543.781 484.937L544.067 493.548C549.842 487.844 552.501 485.889 560.547 484.132ZM563.228 537.652C567.405 535.999 571.889 532.575 573.205 528.253C577.998 512.508 572.573 500.589 555.697 501.536C537.408 507.821 537.528 538.262 563.228 537.652Z"/><path fill="#FE6E2E" d="M860.744 484.184C861.285 484.172 861.826 484.167 862.367 484.168C870.255 484.114 877.818 487.308 883.278 493C897.047 507.069 897.045 533.163 882.713 546.897C876.795 552.552 868.824 555.545 860.646 555.181C852.088 554.859 847.423 550.339 841.975 544.622L841.993 576.25L842.02 590.44C835.883 590.325 829.745 590.33 823.608 590.456C823.117 575.567 823.682 559.031 823.516 543.951C823.304 524.729 823.037 504.522 823.495 485.352C827.217 484.996 837.76 485.072 841.386 485.553L841.651 494.143C847.526 487.851 852.436 485.468 860.744 484.184ZM861.571 537.524C881.156 530.095 876.348 499.477 853.684 501.576C833.694 509.326 839.894 541.036 861.571 537.524Z"/><path fill="#121277" d="M478.362 484.236C497.656 483.39 514.004 498.299 514.934 517.589C515.864 536.879 501.026 553.292 481.74 554.306C462.335 555.326 445.799 540.376 444.863 520.967C443.928 501.558 458.949 485.087 478.362 484.236ZM483.571 537.415C499.536 531.194 500.208 499.988 476.595 501.576C472.297 503.082 468.327 505.662 466.817 510.064C461.832 524.596 466.955 538.557 483.571 537.415Z"/><path fill="#FE6E2E" d="M776.807 484.702C796.065 483.547 812.629 498.185 813.853 517.438C815.077 536.691 800.5 553.308 781.251 554.601C761.904 555.901 745.184 541.233 743.954 521.882C742.724 502.53 757.452 485.863 776.807 484.702ZM782.108 537.889C800.481 530.59 797.117 500.84 776.349 502.082C772.278 503.16 768.211 504.937 766.553 509.024C761.382 521.772 764.582 540.706 782.108 537.889Z"/><path fill="#121277" d="M343.534 468.76C355.979 468.596 371.37 467.097 382.302 473.788C390.672 479.099 393.392 487.674 392.906 496.952C391.966 514.879 378.112 522.903 361.708 521.974C358.645 521.8 353.535 521.397 350.591 521.863C349.742 523.055 349.906 524.928 349.788 526.625C349.788 535.836 349.899 545.3 349.641 554.488C343.435 554.649 336.986 554.938 330.801 554.665C330.464 527.668 330.454 495.957 331.095 469.145C335.093 468.703 339.483 468.784 343.534 468.76ZM349.971 484.553C349.857 491.551 349.772 498.957 350.044 505.952C356.059 506.127 362.653 506.859 368.202 504.754C374.388 500.178 374.525 496.159 372.107 489.082C365.339 483.453 363.679 484.266 354.746 484.219L349.971 484.553Z"/><path fill="#FE6E2E" d="M962.62 529.175L962.903 529.837C966.547 538.408 951.693 550.984 943.763 552.702C937.43 554.074 933.188 554.667 926.567 553.888C900.808 550.854 894.137 519.357 904.827 499.555C917.963 476.502 959.649 480.145 964.153 508.256C964.864 512.695 967.16 521.478 964.762 525.435L962.761 525.739C961.877 527.058 962.212 526.324 962.445 528.425L961.373 526.176C957.71 524.387 925.796 525.413 919.257 525.48C922.406 540.543 934.942 542.962 943.97 531.349C947.641 531.371 959.524 531.727 962.369 530.563L962.62 529.175ZM933.875 512.635C937.707 512.701 942.488 512.915 946.233 512.651C944.126 505.104 940.764 500.192 931.989 500.598C927.384 501.772 918.906 505.638 919.474 511.336L920.185 512.358C924.053 512.818 929.845 512.64 933.875 512.635Z"/><path fill="#FE6E2E" d="M626.59 469.648C637.309 468.884 648.148 469.17 656.07 477.689C658.364 480.156 664.974 490.809 661.693 493.743C659.703 494.109 644.204 493.728 641.965 493.396C638.911 486.54 632.716 481.698 625.31 488.322C624.191 489.323 623.779 492.102 624.052 493.627C625.047 501.125 636.723 504.062 643.448 505.765C673.435 513.361 669.515 550.093 639.098 554.031C619.97 554.436 605.903 550.258 602.33 528.595C608.583 528.256 616.705 528.444 623.072 528.434C626.333 538.447 633.521 542.14 642.029 534.753C649.798 512.696 606.025 523.039 603.606 498.902C601.876 481.644 609.427 472.099 626.59 469.648Z"/><path fill="#FE6E2E" d="M706.445 484.709C722.586 484.306 734.832 493.89 737.467 509.865C730.793 510.01 724.116 510.013 717.442 509.875C711.07 502.068 706.4 498.828 696.694 504.444C692.898 509.423 691.831 514.56 691.928 520.632C692.137 533.712 697.73 537.747 709.686 537.571C714.058 535.334 714.467 534.029 717.148 529.907L735.125 529.975C736.731 530.009 736.054 529.729 737.323 530.484C737.863 534.254 734.709 538.867 732.568 541.847C725.165 552.151 715.581 555.241 703.665 554.521C669.716 552.471 660.205 504.598 689.403 488.704C695.069 485.619 700.143 485.27 706.445 484.709Z"/><path fill="#121277" d="M439.958 483.662L440.47 483.951C441.579 486.343 440.808 500.477 440.61 503.846C428.299 505.304 422.04 505.365 420.987 520.08C420.212 530.9 421.631 543.126 420.581 553.697L420.51 554.381C414.815 554.638 407.864 554.492 402.073 554.522L402.055 546.934L402.06 506.424C402.061 501.03 401.749 489.636 402.542 484.75C408.44 484.376 414.922 484.53 420.873 484.547C421.126 487.861 421.262 491.38 421.447 494.716L421.716 494.348C426.653 487.716 432.093 484.874 439.958 483.662Z"/><path fill="#121277" d="M71.0402 433.675C81.5001 432.751 90.7526 440.423 91.7819 450.873C92.8112 461.323 85.2333 470.653 74.7943 471.788C67.9469 472.533 61.2272 469.542 57.1964 463.957C53.1655 458.372 52.4446 451.053 55.3083 444.789C58.172 438.524 64.1792 434.281 71.0402 433.675Z"/><path fill="#FEFDFE" fill-opacity="0.98823529" d="M961.373 526.176L962.445 528.425L962.62 529.175L962.369 530.563C959.524 531.727 947.641 531.371 943.97 531.349C949.45 524.05 956.862 532.286 961.373 526.176Z"/></svg>